PathFileType	4	(X/Y/Z)	Kaydara	
DataRate	CameraRate	NumFrames	NumMarkers	Units	OrigDataRate	OrigDataStartFrame	OrigNumFrames	
240.00	240.00	4	72	mm	240.00	225	359	
Frame#	Time	Hips			RightUpLeg			RightLeg			RightFoot			RightFoot_End			LeftUpLeg			LeftLeg			LeftFoot			LeftFoot_End			Spine			Spine1			Spine2			Spine3			Neck			Head			Head_End			RightShoulder			RightArm			RightForeArm			RightHand			RightHandThumb1			RightHandThumb2			RightHandThumb3			RightHandThumb3_End			RightInHandIndex			RightHandIndex1			RightHandIndex2			RightHandIndex3			RightHandIndex3_End			RightInHandMiddle			RightHandMiddle1			RightHandMiddle2			RightHandMiddle3			RightHandMiddle3_End			RightInHandRing			RightHandRing1			RightHandRing2			RightHandRing3			RightHandRing3_End			RightInHandPinky			RightHandPinky1			RightHandPinky2			RightHandPinky3			RightHandPinky3_End			LeftShoulder			LeftArm			LeftForeArm			LeftHand			LeftHandThumb1			LeftHandThumb2			LeftHandThumb3			LeftHandThumb3_End			LeftInHandIndex			LeftHandIndex1			LeftHandIndex2			LeftHandIndex3			LeftHandIndex3_End			LeftInHandMiddle			LeftHandMiddle1			LeftHandMiddle2			LeftHandMiddle3			LeftHandMiddle3_End			LeftInHandRing			LeftHandRing1			LeftHandRing2			LeftHandRing3			LeftHandRing3_End			LeftInHandPinky			LeftHandPinky1			LeftHandPinky2			LeftHandPinky3			LeftHandPinky3_End			
		X1	Y1	Z1	X2	Y2	Z2	X3	Y3	Z3	X4	Y4	Z4	X5	Y5	Z5	X6	Y6	Z6	X7	Y7	Z7	X8	Y8	Z8	X9	Y9	Z9	X10	Y10	Z10	X11	Y11	Z11	X12	Y12	Z12	X13	Y13	Z13	X14	Y14	Z14	X15	Y15	Z15	X16	Y16	Z16	X17	Y17	Z17	X18	Y18	Z18	X19	Y19	Z19	X20	Y20	Z20	X21	Y21	Z21	X22	Y22	Z22	X23	Y23	Z23	X24	Y24	Z24	X25	Y25	Z25	X26	Y26	Z26	X27	Y27	Z27	X28	Y28	Z28	X29	Y29	Z29	X30	Y30	Z30	X31	Y31	Z31	X32	Y32	Z32	X33	Y33	Z33	X34	Y34	Z34	X35	Y35	Z35	X36	Y36	Z36	X37	Y37	Z37	X38	Y38	Z38	X39	Y39	Z39	X40	Y40	Z40	X41	Y41	Z41	X42	Y42	Z42	X43	Y43	Z43	X44	Y44	Z44	X45	Y45	Z45	X46	Y46	Z46	X47	Y47	Z47	X48	Y48	Z48	X49	Y49	Z49	X50	Y50	Z50	X51	Y51	Z51	X52	Y52	Z52	X53	Y53	Z53	X54	Y54	Z54	X55	Y55	Z55	X56	Y56	Z56	X57	Y57	Z57	X58	Y58	Z58	X59	Y59	Z59	X60	Y60	Z60	X61	Y61	Z61	X62	Y62	Z62	X63	Y63	Z63	X64	Y64	Z64	X65	Y65	Z65	X66	Y66	Z66	X67	Y67	Z67	X68	Y68	Z68	X69	Y69	Z69	X70	Y70	Z70	X71	Y71	Z71	X72	Y72	Z72	

225	0.933	2198.941	914.58397	126.699	2248.9269552401374	891.5519083283602	51.984351790422686	2152.4553187789584	496.39631310205806	-48.067615802211684	2141.861140557241	105.12828284894319	-125.03420876439029	1990.6300879582125	28.351319107663436	-36.871561221796675	2162.643039164906	911.2944468551832	213.12630970105144	2071.088611742343	508.95122082707496	284.76123393710697	1992.9614099404998	84.04968414119884	366.91190609814004	1871.961999400788	1.2804896754897523	244.25025553738303	2135.2956686629987	1033.0047138436341	77.80494807532284	2074.799723526022	1089.2533999159832	26.70526175542611	2008.894561114417	1140.9388924140292	-30.046482148480198	1942.1021716895439	1179.431746553266	-89.18456521616751	1869.556396072633	1220.9605423320852	-150.73535048641043	1801.9426328386483	1259.3351474543983	-204.26821968636182	1665.1524279665173	1339.1411822731634	-219.3872027722561	1910.0247695744345	1201.0113287505133	-153.49255858380513	1944.9088570176925	1153.3610334444406	-248.36903898417694	1969.4349416868213	942.4282575528706	-189.83090452037234	1932.0655324128663	822.9190972302549	-278.67955124189825	1934.1781133198947	836.7613868807753	-288.09340410450744	1925.9808833785164	840.740974035518	-297.8423177258118	1920.2584535207784	840.0359338849444	-304.8620260049735	1915.4760358297237	836.4741839279618	-310.9113105879663	1935.4126812816805	825.5846184952501	-290.0041388280615	1935.7532809526356	816.697757551627	-307.21180739444895	1930.1653151936666	810.4318152929443	-318.0089535170154	1923.4788100054432	810.0129517313278	-322.55202497534367	1915.777481469498	812.0113812335312	-324.8489143501064	1935.0861995808655	816.4347391869504	-289.9763598553501	1935.243477712914	802.8176161885648	-306.7455131690203	1929.0944374131218	794.8016378811058	-318.466402508389	1921.002711795703	793.7307405670991	-323.91819182239317	1912.564053279826	795.642452782283	-326.4171856901327	1934.9059717399741	810.1734620296436	-289.5345137131701	1935.0634594441954	792.4653221511754	-304.2288791279128	1929.6504314388799	784.2956567525032	-314.3559306837058	1921.8169037187406	782.6345089089879	-319.5673965085694	1913.8689685678842	784.134315342275	-321.8947002108418	1934.2226294739162	803.4008932997666	-288.3936881748434	1934.144292703768	782.9015404875546	-301.23018023376693	1929.7251553477188	774.5915048245088	-309.1366346635575	1923.970429247599	772.5245778483469	-312.8397349683425	1916.906303767307	773.3609510738137	-314.84485868754325	1877.3620455749692	1213.658651617989	-106.01357433598682	1839.7232183126878	1197.2503930761673	-3.0946315515038627	1918.6680595413154	1013.0448423713808	-83.59029193015252	1940.6344838685923	869.3866581210361	-213.22530459997532	1950.3053211814827	877.5206614244518	-223.3989039109466	1967.3937576641767	866.9639371616242	-232.5812726126777	1978.983504149819	856.5246960335827	-239.3966209671939	1988.3796443977196	845.1806402773224	-245.438220210079	1949.383788388001	868.1545868580044	-226.27921130150935	1964.6147032096178	850.6803393872087	-245.89026789257053	1978.9278048738424	833.4153549989564	-257.1946787679507	1988.9359757363331	823.7507928206057	-261.07209010751626	1997.9682815569654	816.472551554626	-262.156284690478	1948.1853190415593	860.122548892611	-226.62962810157322	1962.391783946141	838.7356237772179	-245.94787412407217	1977.807314769787	818.8865777159995	-258.2629306867513	1989.7844448259511	806.7422103340747	-262.93114207211386	1999.6200928713954	798.5430035994566	-264.112706640659	1946.913218825475	854.9219991008584	-226.40720170541883	1958.4333730222857	831.3230184366805	-243.6161893891452	1971.6402350185517	813.0240926723476	-254.2985076166134	1983.071323412844	800.7796648040551	-258.7739945401872	1992.2615904225627	792.8190896273279	-259.8719866919512	1945.2949867089994	849.212409677474	-225.34286859101695	1954.7453100853863	824.1364997943385	-240.5791805590928	1964.9130696346585	808.028455089387	-248.97752262231523	1973.053686539833	798.3935059878613	-252.16664807681872	1981.0812376056556	790.9366862457409	-253.09595592131717
226	0.938	2198.941	914.58397	126.699	2248.8480114465215	891.4686807516285	51.96389233352812	2152.367353365411	496.33028365104474	-48.147119158732174	2141.874860935418	105.0602358647057	-125.10721191543934	1990.6561895353145	28.283411454296303	-36.92322972827851	2162.7123981217787	911.3756286399915	213.15303262827658	2071.154933601391	509.0271628560935	284.75390535113854	1992.9710971042573	84.1145839600885	366.7842507659795	1871.9807258028247	1.3368624886122253	244.11948037863542	2135.341958996644	1033.0178327537633	77.77821352748825	2074.8320834601445	1089.2376052376824	26.66192690436576	2008.9306358081938	1140.9137193068593	-30.103055207510018	1942.1548423100187	1179.412297196051	-89.25653078654845	1869.6272412279995	1220.9481164679814	-150.8243759965383	1802.0309328346707	1259.330273960839	-204.37434447666084	1665.2691060865832	1339.1623919510193	-219.5819628760886	1910.074863371273	1200.9839404564889	-153.5525202733025	1944.633209686771	1152.9181174665528	-248.22400346673987	1968.5474245459059	942.5187148619716	-188.63903649885947	1930.5976081611022	823.0834307354044	-275.65973566217366	1932.7058569059443	836.9577836533005	-284.9095794918953	1924.6164145481491	840.9137687730678	-294.50298514565577	1918.9635475900538	840.1859269611991	-301.4155845489728	1914.234415771926	836.5997246571692	-307.3765934064299	1933.9067609197978	825.7651487179635	-286.8060804218863	1934.227572412237	816.8620826997944	-303.7606472030073	1928.6982067286087	810.5634637577282	-314.40004471187854	1922.093874151273	810.1189800226391	-318.87380794139335	1914.4914144041468	812.092626381319	-321.132734216073	1933.569445437517	816.5975062489747	-286.7912117424666	1933.7015434259208	802.9549741448051	-303.3204779049938	1927.6151743199932	794.9010215601127	-314.87177859093856	1919.6219752456195	793.7981036988734	-320.2411736547127	1911.2911987882383	795.6821573920648	-322.6992221662162	1933.3812960728571	810.3242650549774	-286.3647179377149	1933.507072788517	792.5834735210188	-300.85674932978185	1928.1474132546841	784.3783790200595	-310.8389724048135	1920.4082563306688	782.6851061329209	-315.9725461017568	1912.561443005183	784.1583191740315	-318.2621028040922	1932.6954990052252	803.5370184941426	-285.25072388720525	1932.5839563196798	782.9992418949906	-297.91732762333316	1928.2057419426897	774.6573395495304	-305.7133481242285	1922.5189726492583	772.5652909363325	-309.3623150391673	1915.5439200162195	773.3771344535744	-311.3355437413017	1877.4419240144532	1213.6564894722126	-106.12114141843821	1839.9445225561526	1197.6657047324454	-3.3392114738187253	1918.241138770448	1013.0936755629468	-82.65280172913667	1939.0193226379665	868.4517978302656	-210.76817896934733	1948.4259273958246	876.5391921711785	-220.84929760626719	1965.2512811109211	865.977196725432	-230.0626517481825	1976.6711897710338	855.5366928685271	-236.8901722087122	1985.9371869481818	844.1936447957883	-242.93387620025788	1947.5279567997961	867.1732485325313	-223.66968314421652	1962.441275070732	849.6551953439051	-243.0897087383912	1976.5341176390082	832.382291977961	-254.3558603207017	1986.4195166937702	822.7266310703009	-258.2839381676066	1995.3597576069303	815.4650820401198	-259.46029083336947	1946.3769544503275	859.1503555661234	-224.00567000162744	1960.299321165036	837.7256443548043	-243.12976009668577	1975.481799289112	817.8693350080212	-255.4018997425723	1987.3143118178539	805.7363673289633	-260.1306799117209	1997.0509259379257	797.5557467665055	-261.4128101450153	1945.1465130720633	853.9571634631836	-223.77686297896616	1956.4482673059583	830.3300568824575	-240.80320431925392	1969.4599033004813	812.0262691170332	-251.44724345172412	1980.7556915798366	799.7936175777672	-255.98068871685513	1989.8548324338885	791.8508858566643	-257.173018120764	1943.5853627435365	848.2590732273158	-222.71906733112104	1952.8705176061821	823.1636941791331	-237.78826646050808	1962.8952285123028	807.0541741627014	-246.1553968469093	1970.94358363766	797.4289829071213	-249.3865260796446	1978.8941079933425	789.9886439449208	-250.39924463678332
227	0.942	2198.941	914.58397	126.699	2248.760288331089	891.3769007800529	51.939607543267094	2152.268501653941	496.25765380424974	-48.23556629499073	2141.8778198089467	104.98734598852764	-125.19826335935981	1990.6671229407887	28.209188479169175	-37.00176756419631	2162.789284817513	911.4647677182828	213.1837058618707	2071.2260950412	509.1110371572398	284.74686074901683	1992.985782599921	84.18772108605553	366.65833132962	1872.0044253232998	1.401305516858636	243.99058124837887	2135.3942232968625	1033.0340175396448	77.75112707471769	2074.87610688612	1089.2258020609115	26.61258056313941	2008.9816877198673	1140.8916825083227	-30.170277638390413	1942.2201620901158	1179.3928788118621	-89.33859244183628	1869.7079986532935	1220.9317483098082	-150.92301524483327	1802.1271355408765	1259.3186945200057	-204.4895566588646	1665.3957166442278	1339.1805891438823	-219.78467236574008	1910.118120863801	1200.9161107544141	-153.62827433775223	1944.3506309006457	1152.4302475675886	-248.09537457285194	1967.6556294467457	942.5622544600069	-187.44086348752077	1929.1392779753755	823.1967854669685	-272.6804341491042	1931.2506270491715	837.105253167076	-281.77349118309354	1923.2734209272794	841.035126770397	-291.2197024721838	1917.692283123215	840.2817439131633	-298.03093269593273	1913.0174461194456	836.6679564730662	-303.9084065214247	1932.4153168729235	825.8935319819869	-283.6562401594803	1932.7198829076215	816.9681522081394	-300.36928278966843	1927.2510104416506	810.6318107359162	-310.85898022088514	1920.7301971337242	810.1594166375264	-315.26757670758553	1913.2278352575706	812.106955037295	-317.4913867498683	1932.0644836590898	816.7056028611318	-283.65374044238814	1932.173405330327	803.0303384980301	-299.95411851303885	1926.1514066259772	794.9325920353697	-311.3445035994985	1918.2581830054014	793.7947392239106	-316.6364487924739	1910.0365481451547	795.6496114529547	-319.0566413106157	1931.8664263888431	810.4187711882619	-283.24192254116826	1931.96056465491	792.6373536159319	-297.54089725747326	1926.6553774508407	784.3914477368218	-307.3857226949238	1919.0117882463846	782.6630744007223	-312.4461049330856	1911.2671855606313	784.1081848141898	-314.70078656619893	1931.1757789021349	803.6151459181605	-282.15362881669944	1931.0296234410328	783.0305831680166	-294.658167408213	1926.6926260564014	774.6520559608794	-302.34946240208666	1921.0744015465732	772.5324984906866	-305.9476078931419	1914.189222060711	773.3183497018146	-307.8914179720988	1877.5511805528363	1213.6906186671856	-106.23277744985297	1840.2207336418173	1198.1836708451335	-3.535001947930236	1917.962450740515	1013.3053126121836	-81.72296508983123	1937.3892373983354	867.4277318628504	-208.0544165959619	1946.5381893521946	875.472345836089	-218.0486608575444	1963.1009537346067	864.9040627863872	-227.2903586707954	1974.350387903737	854.4603591366761	-234.12811393969778	1983.484870813386	843.1156533375311	-240.17222358779406	1945.6612581215543	866.1026059029406	-220.81020064493853	1960.2578445427987	848.5354969428467	-240.04509232389285	1974.128936895139	831.2503506222415	-251.27221242894396	1983.8902220380326	821.6019432058268	-255.24742241885264	1992.737006800308	814.3564249804011	-256.5109478176341	1944.5549240526211	858.0856677086081	-221.1310548157279	1958.1925225036507	836.6163233045337	-240.06636162209995	1973.1399469755459	816.7476283029841	-252.29462434788778	1984.8260422808185	804.6238782482509	-257.07965168962767	1994.462012840926	796.4610251114023	-258.4568649121385	1943.3641569607419	852.8977108387662	-220.89526994200958	1954.445231623775	829.2344927492551	-237.74340828734856	1967.2595159459288	810.9209754106353	-248.34820177370295	1978.4180655406851	798.6977818755287	-252.93536815137253	1987.4244700949978	790.7720227670103	-254.21684711102245	1941.857658646721	847.2088430677538	-219.84275836042895	1950.97410604865	822.0852591759555	-234.7483169373012	1960.8534799211573	805.969771566216	-243.08323920517577	1968.8078751240298	796.3523606405944	-246.3531755334517	1976.679783451801	788.9275649416838	-247.44464733786694
228	0.946	2198.941	914.58397	126.699	2248.6617362387765	891.2736622349962	51.910859444015856	2152.158544192638	496.1766716415834	-48.3398621939279	2141.8681086905176	104.90788242467752	-125.3139955706892	1990.661798852434	28.127443321631905	-37.11195203398846	2162.8752100749666	911.5645853225351	213.21919706000455	2071.304229998809	509.20567393676305	284.7423924650989	1993.0070574303159	84.27219770787667	366.5372777951993	1872.034673474624	1.4767280975877013	243.86683285090967	2135.45495630633	1033.0542327203536	77.72269988360911	2074.935911015507	1089.221145454136	26.556849049606843	2009.0518929928376	1140.876571627565	-30.2479834969029	1942.3019199677776	1179.377706290763	-89.4298634694572	1869.8020672395924	1220.9160751019522	-151.0296296867997	1802.2342951115083	1259.3053998374573	-204.61152119532684	1665.5355683222797	1339.201392833701	-219.9919990094385	1910.1580200052929	1200.8125051187399	-153.71871066143626	1944.0643216768606	1151.9029686799597	-247.98182606794666	1966.7657237615747	942.5638177406445	-186.23719377095938	1927.7016366303164	823.2621454974018	-269.7635862944831	1929.8198295595178	837.204971980936	-278.70368120795484	1921.958022050564	841.1059326282365	-288.0065261655052	1916.4503567166073	840.3244118757374	-294.71897436789243	1911.830875131379	836.6803210362499	-300.5150012873942	1930.9469668842205	825.9719543233807	-280.572784859154	1931.2374215801158	817.0184932079112	-297.04983930096324	1925.8307239829164	810.6399636351218	-307.393471399771	1919.3947915435979	810.1376097680005	-311.73867597842894	1911.9938673934157	812.0578337581092	-313.9285120135061	1930.5813036418838	816.7621599663611	-280.5822350857073	1930.6684203106386	803.0476840491715	-296.6588976206194	1924.712446770104	794.9010813001486	-307.89225932441104	1916.9207547756046	793.7257289935152	-313.10886059269035	1908.8096857779828	795.5500552488277	-315.4924296519163	1930.3723517256326	810.4607693322046	-280.1846578800447	1930.4352104403551	792.6320750168977	-294.29484338703213	1925.185752444696	784.3407609042744	-304.0055805914345	1917.6391332389514	782.5747158757044	-308.9947583096423	1909.998033156298	783.9903949657547	-311.21570239230135	1929.6756906609708	803.6398216420547	-279.1213811311573	1929.494520851806	783.0017876741953	-291.4673588492951	1925.1994546943165	774.5826961860372	-299.056429101946	1919.6506567341205	772.4336293349525	-302.6051305026075	1912.8564135610004	773.1922384349813	-304.5204878348824	1877.6933995439788	1213.7653615865092	-106.34680770460494	1840.5531241278034	1198.8030890082089	-3.6813499666256666	1917.8351551013336	1013.6832373291775	-80.80063416504225	1935.7109973561537	866.2707785956197	-205.03940220568185	1944.6125634294992	874.2789893984909	-214.9509624611282	1960.913988120324	863.7038250330661	-224.2157360640924	1971.9922826779123	853.2551247094336	-231.06033530950558	1980.9933813326008	841.9060804492098	-237.10226035240927	1943.7526651891985	864.9014155161342	-217.65618049938533	1958.0339636121423	847.2822492212989	-236.71226678213648	1971.6813179157034	829.9809839221142	-247.8986389751039	1981.316751964106	820.3377990415149	-251.91583767104612	1990.0683039440792	813.1068866683091	-253.25952915945157	1942.68662766916	856.8866908786791	-217.9621453879889	1956.038502186539	835.3677615190782	-236.71497425131037	1970.748119577664	815.4819658185825	-248.8974918354576	1982.285420014339	803.3647498021332	-253.73256182988442	1991.8186666021454	795.217990859582	-255.19719227111898	1941.5324298466937	851.7014108997791	-217.71945804016917	1952.3893330897051	827.9954472912625	-234.3953009712367	1965.0032694095148	809.6676015152958	-244.95921344761192	1976.0219703001703	797.4510181017382	-249.59411292943756	1984.9335316619304	789.5405356849814	-250.95753188383702	1940.0768013584789	846.0188362067921	-216.6716202601372	1949.019075642198	820.8591862351125	-231.41880110134443	1958.749797038005	804.7333133494428	-239.72016861243262	1966.6078848084628	795.1212509673591	-243.024528001689	1974.3990559158167	787.7102909745753	-244.18835632949228
